<svg width="1024" height="1024" viewBox="0 0 1024 1024" fill="none" xmlns="http://www.w3.org/2000/svg">
  <path d="M512 167C321 274 236 431 256 617C440 608 592 506 650 326C603 259 555 205 512 167Z" fill="#1C7453"/>
  <path d="M512 167C703 274 788 431 768 617C584 608 432 506 374 326C421 259 469 205 512 167Z" fill="#B8DE59"/>
  <path d="M509 262C490 398 492 552 536 707" stroke="#F2F5EE" stroke-width="44" stroke-linecap="round"/>
  <path d="M397 503C448 510 491 535 531 577" stroke="#F2F5EE" stroke-width="34" stroke-linecap="round"/>
  <path d="M626 472C586 488 552 515 522 550" stroke="#F2F5EE" stroke-width="34" stroke-linecap="round"/>
</svg>
